<?xml version="1.0" encoding="utf-8"?>
<!-- Generator: Adobe Illustrator 27.3.1, SVG Export Plug-In . SVG Version: 6.00 Build 0)  -->
<svg version="1.1" id="Layer_2_00000141452877296571365800000016478568535736302767_"
	 xmlns="http://www.w3.org/2000/svg" xmlns:xlink="http://www.w3.org/1999/xlink" x="0px" y="0px" viewBox="0 0 2880 1620"
	 style="enable-background:new 0 0 2880 1620;" xml:space="preserve">
<style type="text/css">
	.st0{fill:#EC1A75;}
	.st1{fill:url(#SVGID_1_);}
	.st2{fill:url(#SVGID_00000054250439895645289270000012909856987618361769_);}
	.st3{fill:url(#SVGID_00000082363689575188451560000003912573397968517525_);}
	.st4{fill:url(#SVGID_00000052077401649696126610000018291449983659763628_);}
	.st5{fill:url(#SVGID_00000180330816768646408790000014868363605514214277_);}
	.st6{fill:url(#SVGID_00000044887337697332424080000003095980901482378880_);}
	.st7{fill:url(#SVGID_00000054257695241973930600000011134615247717882499_);}
	.st8{fill:url(#SVGID_00000023253349954111727020000017555304153456312752_);}
	.st9{fill:url(#SVGID_00000143581063848368013450000002100073632128935589_);}
	.st10{fill:url(#SVGID_00000139989763074925301040000011941489818500411525_);}
	.st11{fill:url(#SVGID_00000157291795562366112730000016773138019933015990_);}
	.st12{fill:url(#SVGID_00000029740420940306391740000002743078916292078521_);}
	.st13{fill:url(#SVGID_00000122707836177769901230000012497378174966185663_);}
	.st14{fill:url(#SVGID_00000043452451118341563330000008905305663346713017_);}
	.st15{fill:url(#SVGID_00000003072290074145301360000013915106370877549217_);}
	.st16{fill:url(#SVGID_00000155126634886752837220000001594757740544406207_);}
	.st17{fill:url(#SVGID_00000055667086469143575540000011841101129299644316_);}
	.st18{fill:url(#SVGID_00000080906289875177438670000011210979181051182480_);}
	.st19{fill:url(#SVGID_00000172407889072901720990000004728166529751119277_);}
	.st20{fill:url(#SVGID_00000111900977274226811410000015401320421049547665_);}
	.st21{fill:url(#SVGID_00000043439169485896706500000013336883597399492226_);}
	.st22{fill:url(#SVGID_00000155846773438987925160000008465497402985548433_);}
	.st23{fill:url(#SVGID_00000108276986073842899670000006641897627599954819_);}
	.st24{fill:url(#SVGID_00000007419796353855436470000009514369239810311091_);}
	.st25{fill:url(#SVGID_00000020388545199442135080000010214534121675500443_);}
	.st26{fill:url(#SVGID_00000110438995958307041010000006928399962917581966_);}
	.st27{fill:url(#SVGID_00000101783218082079405190000017171626669850438533_);}
	.st28{fill:url(#SVGID_00000074427276477937148220000017602106396480021677_);}
	.st29{fill:url(#SVGID_00000062877929112037299340000008193448429103878031_);}
</style>
<g id="Layer_1-2">
	<rect class="st0" width="2880" height="1620"/>
</g>
<g>
	<linearGradient id="SVGID_1_" gradientUnits="userSpaceOnUse" x1="2799.9148" y1="15.6661" x2="2799.915" y2="1633.8701">
		<stop  offset="0" style="stop-color:#C31D6C"/>
		<stop  offset="1" style="stop-color:#EC1A75"/>
	</linearGradient>
	<path class="st1" d="M2762.9,0L2762.9,0l-43.1,0c4.9,2.1,9.7,4.2,14.6,6.3c52.4,22.8,100.8,43.8,145.6,62.3V50
		C2843.1,34.7,2804,17.9,2762.9,0z"/>
	
		<linearGradient id="SVGID_00000054979541227856893760000002184867779099590562_" gradientUnits="userSpaceOnUse" x1="2710.3149" y1="15.6661" x2="2710.3149" y2="1633.8701">
		<stop  offset="0" style="stop-color:#C31D6C"/>
		<stop  offset="1" style="stop-color:#EC1A75"/>
	</linearGradient>
	<path style="fill:url(#SVGID_00000054979541227856893760000002184867779099590562_);" d="M2585.2,0h-44.6
		c69.5,28.7,134.2,56.8,193.8,82.7c52.4,22.8,100.8,43.8,145.6,62.3v-18.6c-43.3-18-89.6-38.1-138.8-59.4
		C2692.6,45.8,2640.5,23.2,2585.2,0z"/>
	
		<linearGradient id="SVGID_00000165920341553054707990000006470932333141943718_" gradientUnits="userSpaceOnUse" x1="2612.99" y1="15.6661" x2="2612.9902" y2="1633.8701">
		<stop  offset="0" style="stop-color:#C31D6C"/>
		<stop  offset="1" style="stop-color:#EC1A75"/>
	</linearGradient>
	<path style="fill:url(#SVGID_00000165920341553054707990000006470932333141943718_);" d="M2880,221.3v-18.6
		c-43.3-18-89.6-38.1-138.8-59.4C2640.1,99.4,2524.1,49.1,2394.9,0H2346c146.1,53.9,276.4,110.4,388.4,159
		C2786.8,181.8,2835.2,202.8,2880,221.3z"/>
	
		<linearGradient id="SVGID_00000091720186957355504830000010450231592100475307_" gradientUnits="userSpaceOnUse" x1="2499.3999" y1="15.6661" x2="2499.4001" y2="1633.8701">
		<stop  offset="0" style="stop-color:#C31D6C"/>
		<stop  offset="1" style="stop-color:#EC1A75"/>
	</linearGradient>
	<path style="fill:url(#SVGID_00000091720186957355504830000010450231592100475307_);" d="M2176.7,0h-57.9
		c240.5,72.6,448.4,162.8,615.6,235.4c52.4,22.8,100.8,43.8,145.6,62.3v-18.6c-43.3-18-89.6-38.1-138.8-59.4
		C2586,152.3,2395.8,69.7,2176.7,0z"/>
	
		<linearGradient id="SVGID_00000169519178765244535830000016079071339686325911_" gradientUnits="userSpaceOnUse" x1="74.315" y1="15.6661" x2="74.315" y2="1633.8701">
		<stop  offset="0" style="stop-color:#C31D6C"/>
		<stop  offset="1" style="stop-color:#EC1A75"/>
	</linearGradient>
	<path style="fill:url(#SVGID_00000169519178765244535830000016079071339686325911_);" d="M148.6,0H82.3C53.6,7.7,26.3,15,0,21.8
		v17.7C29.2,32,59.6,23.8,91.7,15.2C110,10.3,129,5.2,148.6,0z"/>
	
		<linearGradient id="SVGID_00000153702055971281791050000004853254416941046420_" gradientUnits="userSpaceOnUse" x1="242.38" y1="15.6661" x2="242.38" y2="1633.8701">
		<stop  offset="0" style="stop-color:#C31D6C"/>
		<stop  offset="1" style="stop-color:#EC1A75"/>
	</linearGradient>
	<path style="fill:url(#SVGID_00000153702055971281791050000004853254416941046420_);" d="M484.8,0h-90.3
		C274.6,24.7,173.5,51.9,87.2,75C56.8,83.2,27.8,91,0,98.1v17.7c29.2-7.5,59.6-15.6,91.7-24.2C197.8,63.1,326.4,28.5,484.8,0z"/>
	
		<linearGradient id="SVGID_00000096032314688364862460000006482642426877357187_" gradientUnits="userSpaceOnUse" x1="2348.3999" y1="15.6661" x2="2348.4001" y2="1633.8701">
		<stop  offset="0" style="stop-color:#C31D6C"/>
		<stop  offset="1" style="stop-color:#EC1A75"/>
	</linearGradient>
	<path style="fill:url(#SVGID_00000096032314688364862460000006482642426877357187_);" d="M2122.1,59.4L2122.1,59.4
		c-75.4-22.7-150-42.5-224-59.4h-81.3c99,20.1,198.9,45.3,300.4,75.9c241.2,72.7,449.7,163.2,617.2,235.9
		c52.4,22.8,100.8,43.8,145.6,62.3v-18.6c-43.3-18-89.6-38.1-138.8-59.4C2573.3,223.1,2364.3,132.4,2122.1,59.4z"/>
	
		<linearGradient id="SVGID_00000070093984807194021640000004541436227647489413_" gradientUnits="userSpaceOnUse" x1="1440" y1="15.6661" x2="1440" y2="1633.8701">
		<stop  offset="0" style="stop-color:#C31D6C"/>
		<stop  offset="1" style="stop-color:#EC1A75"/>
	</linearGradient>
	<path style="fill:url(#SVGID_00000070093984807194021640000004541436227647489413_);" d="M2122.1,135.8L2122.1,135.8
		C1838,50.2,1566.4,6.1,1291.8,0.9c-31.7-0.6-63-0.9-94-0.9c-3.3,0-6.6,0-9.8,0C962.4,0.2,755.3,15.6,557.9,46.6
		C363.3,77.2,210.2,118.4,87.2,151.4c-30.5,8.2-59.4,16-87.2,23.1v17.7c29.2-7.5,59.6-15.6,91.7-24.2C214.3,135,366.8,94,560.5,63.6
		c226.4-35.6,465.5-50.5,730.9-45.5c273.1,5.2,543.1,49,825.7,134.1c241.2,72.7,449.7,163.2,617.2,235.9
		c52.4,22.8,100.8,43.8,145.6,62.3v-18.6c-43.3-18-89.6-38.1-138.8-59.4C2573.3,299.5,2364.3,208.7,2122.1,135.8z"/>
	
		<linearGradient id="SVGID_00000128457858313286277900000015088094180717289873_" gradientUnits="userSpaceOnUse" x1="1439.9899" y1="15.6661" x2="1439.9899" y2="1633.8701">
		<stop  offset="0" style="stop-color:#C31D6C"/>
		<stop  offset="1" style="stop-color:#EC1A75"/>
	</linearGradient>
	<path style="fill:url(#SVGID_00000128457858313286277900000015088094180717289873_);" d="M2122.1,212.1L2122.1,212.1
		c-284-85.5-555.6-129.7-830.3-134.9c-266.5-5-506.5,9.9-733.9,45.7c-194.6,30.6-347.7,71.7-470.6,104.8
		c-30.5,8.2-59.4,15.9-87.2,23.1v17.7c29.2-7.5,59.6-15.6,91.7-24.2c122.6-32.9,275.2-73.9,468.9-104.4
		c226.4-35.6,465.5-50.5,730.9-45.5c273.1,5.2,543.1,49,825.7,134.1c241.2,72.6,449.7,163.2,617.2,235.9
		c52.4,22.8,100.8,43.8,145.6,62.3v-18.6c-43.3-18-89.6-38.1-138.8-59.4C2573.3,375.8,2364.3,285.1,2122.1,212.1z"/>
	
		<linearGradient id="SVGID_00000043444599627359758620000008785196073473666703_" gradientUnits="userSpaceOnUse" x1="1439.9899" y1="15.6661" x2="1439.9899" y2="1633.8701">
		<stop  offset="0" style="stop-color:#C31D6C"/>
		<stop  offset="1" style="stop-color:#EC1A75"/>
	</linearGradient>
	<path style="fill:url(#SVGID_00000043444599627359758620000008785196073473666703_);" d="M2122.1,288.5L2122.1,288.5
		c-284-85.6-555.6-129.7-830.3-134.9c-266.5-5-506.5,9.9-733.9,45.7C363.3,230,210.2,271.1,87.2,304.1C56.8,312.3,27.8,320,0,327.2
		v17.7c29.2-7.5,59.6-15.6,91.7-24.2c122.6-32.9,275.2-73.9,468.9-104.4c226.4-35.6,465.5-50.5,730.9-45.5
		c273.1,5.2,543.1,49,825.7,134.1c241.2,72.7,449.7,163.2,617.2,235.9c52.4,22.8,100.8,43.8,145.6,62.3v-18.6
		c-43.3-18-89.6-38.1-138.8-59.4C2573.3,452.2,2364.3,361.4,2122.1,288.5z"/>
	
		<linearGradient id="SVGID_00000093863145218498749000000017003161563615431304_" gradientUnits="userSpaceOnUse" x1="1439.9899" y1="15.6661" x2="1439.9899" y2="1633.8701">
		<stop  offset="0" style="stop-color:#C31D6C"/>
		<stop  offset="1" style="stop-color:#EC1A75"/>
	</linearGradient>
	<path style="fill:url(#SVGID_00000093863145218498749000000017003161563615431304_);" d="M2122.1,364.9L2122.1,364.9
		c-284-85.5-555.6-129.7-830.3-134.9c-266.5-5-506.5,9.9-733.9,45.7c-194.6,30.6-347.7,71.7-470.6,104.8
		c-30.5,8.2-59.4,15.9-87.2,23.1v17.7c29.2-7.5,59.6-15.6,91.7-24.2c122.6-32.9,275.2-73.9,468.9-104.4
		c226.4-35.6,465.5-50.5,730.9-45.5c273.1,5.2,543.1,49,825.7,134.1c241.2,72.6,449.7,163.2,617.2,235.9
		c52.4,22.8,100.8,43.8,145.6,62.3v-18.6c-43.3-18-89.6-38.1-138.8-59.4C2573.3,528.5,2364.3,437.8,2122.1,364.9z"/>
	
		<linearGradient id="SVGID_00000116925088257783072340000018272263368932769164_" gradientUnits="userSpaceOnUse" x1="1439.9899" y1="15.6661" x2="1439.9899" y2="1633.8701">
		<stop  offset="0" style="stop-color:#C31D6C"/>
		<stop  offset="1" style="stop-color:#EC1A75"/>
	</linearGradient>
	<path style="fill:url(#SVGID_00000116925088257783072340000018272263368932769164_);" d="M2122.1,441.2L2122.1,441.2
		c-284-85.6-555.6-129.7-830.3-134.9c-266.5-5-506.5,9.9-733.9,45.7c-194.6,30.6-347.7,71.7-470.6,104.8
		C56.8,465,27.8,472.8,0,479.9v17.7c29.2-7.5,59.6-15.6,91.7-24.2c122.6-32.9,275.2-73.9,468.9-104.4
		c226.4-35.6,465.5-50.5,730.9-45.5c273.1,5.2,543.1,49,825.7,134.1c241.2,72.7,449.7,163.2,617.2,235.9
		c52.4,22.8,100.8,43.8,145.6,62.3v-18.6c-43.3-18-89.6-38.1-138.8-59.4C2573.3,604.9,2364.3,514.2,2122.1,441.2z"/>
	
		<linearGradient id="SVGID_00000173848734128633593960000007325437044903950498_" gradientUnits="userSpaceOnUse" x1="1439.9899" y1="15.6661" x2="1439.9899" y2="1633.8701">
		<stop  offset="0" style="stop-color:#C31D6C"/>
		<stop  offset="1" style="stop-color:#EC1A75"/>
	</linearGradient>
	<path style="fill:url(#SVGID_00000173848734128633593960000007325437044903950498_);" d="M2122.1,517.6L2122.1,517.6
		c-284-85.5-555.6-129.7-830.3-134.9c-266.5-5-506.5,9.9-733.9,45.7C363.3,459,210.2,500.1,87.2,533.2c-30.5,8.2-59.4,16-87.2,23.1
		V574c29.2-7.5,59.6-15.6,91.7-24.2c122.6-32.9,275.2-73.9,468.9-104.4c226.4-35.6,465.5-50.5,730.9-45.5
		c273.1,5.2,543.1,49,825.7,134.1c241.2,72.7,449.7,163.2,617.2,235.9c52.4,22.8,100.8,43.8,145.6,62.3v-18.6
		c-43.3-18-89.6-38.1-138.8-59.4C2573.3,681.2,2364.3,590.5,2122.1,517.6z"/>
	
		<linearGradient id="SVGID_00000074419989732993721740000014327356884359846839_" gradientUnits="userSpaceOnUse" x1="1439.9899" y1="15.6661" x2="1439.9899" y2="1633.8701">
		<stop  offset="0" style="stop-color:#C31D6C"/>
		<stop  offset="1" style="stop-color:#EC1A75"/>
	</linearGradient>
	<path style="fill:url(#SVGID_00000074419989732993721740000014327356884359846839_);" d="M2122.1,593.9L2122.1,593.9
		c-284-85.5-555.6-129.7-830.3-134.9c-266.5-5-506.5,9.9-733.9,45.7c-194.6,30.6-347.7,71.7-470.6,104.8
		c-30.5,8.2-59.4,16-87.2,23.1v17.7c29.2-7.5,59.6-15.6,91.7-24.2c122.6-32.9,275.2-73.9,468.9-104.4
		c226.4-35.6,465.5-50.5,730.9-45.5c273.1,5.2,543.1,49,825.7,134.1c241.2,72.7,449.7,163.2,617.2,235.9
		c52.4,22.8,100.8,43.8,145.6,62.3v-18.6c-43.3-18-89.6-38.1-138.8-59.4C2573.3,757.6,2364.3,666.9,2122.1,593.9z"/>
	
		<linearGradient id="SVGID_00000079449627656919858580000009660515041752268947_" gradientUnits="userSpaceOnUse" x1="1439.9899" y1="15.6661" x2="1439.9899" y2="1633.8701">
		<stop  offset="0" style="stop-color:#C31D6C"/>
		<stop  offset="1" style="stop-color:#EC1A75"/>
	</linearGradient>
	<path style="fill:url(#SVGID_00000079449627656919858580000009660515041752268947_);" d="M2122.1,670.3L2122.1,670.3
		c-284-85.5-555.6-129.7-830.3-134.9c-266.5-5-506.5,9.9-733.9,45.7c-194.6,30.6-347.7,71.7-470.6,104.8C56.8,694,27.8,701.8,0,709
		v17.7c29.2-7.5,59.6-15.6,91.7-24.2c122.6-32.9,275.2-73.9,468.9-104.4c226.4-35.6,465.5-50.5,730.9-45.5
		c273.1,5.2,543.1,49,825.7,134.1c241.2,72.7,449.7,163.2,617.2,235.9c52.4,22.8,100.8,43.8,145.6,62.3v-18.6
		c-43.3-18-89.6-38.1-138.8-59.4C2573.3,834,2364.3,743.2,2122.1,670.3z"/>
	
		<linearGradient id="SVGID_00000115508615374299339880000007831119847163996848_" gradientUnits="userSpaceOnUse" x1="1439.9899" y1="15.6661" x2="1439.9899" y2="1633.8701">
		<stop  offset="0" style="stop-color:#C31D6C"/>
		<stop  offset="1" style="stop-color:#EC1A75"/>
	</linearGradient>
	<path style="fill:url(#SVGID_00000115508615374299339880000007831119847163996848_);" d="M2122.1,746.6L2122.1,746.6
		c-284-85.6-555.6-129.7-830.3-134.9c-266.5-5-506.5,9.9-733.9,45.7c-194.6,30.6-347.7,71.7-470.6,104.8
		c-30.5,8.2-59.4,16-87.2,23.1V803c29.2-7.5,59.6-15.6,91.7-24.2c122.6-32.9,275.2-73.9,468.9-104.4
		c226.4-35.6,465.5-50.5,730.9-45.5c273.1,5.2,543.1,49,825.7,134.1c241.2,72.7,449.7,163.2,617.2,235.9
		c52.4,22.8,100.8,43.8,145.6,62.3v-18.6c-43.3-18-89.6-38.1-138.8-59.4C2573.3,910.3,2364.3,819.6,2122.1,746.6z"/>
	
		<linearGradient id="SVGID_00000176761124946283639320000004282058337464885899_" gradientUnits="userSpaceOnUse" x1="1439.9899" y1="15.6661" x2="1439.9899" y2="1633.8701">
		<stop  offset="0" style="stop-color:#C31D6C"/>
		<stop  offset="1" style="stop-color:#EC1A75"/>
	</linearGradient>
	<path style="fill:url(#SVGID_00000176761124946283639320000004282058337464885899_);" d="M2122.1,823L2122.1,823
		c-284-85.6-555.6-129.7-830.3-134.9c-266.5-5-506.5,9.9-733.9,45.7c-194.6,30.6-347.7,71.7-470.6,104.8
		c-30.5,8.2-59.4,16-87.2,23.1v17.7c29.2-7.5,59.6-15.6,91.7-24.2c122.6-32.9,275.2-73.9,468.9-104.4
		c226.4-35.6,465.5-50.5,730.9-45.5c273.1,5.2,543.1,49,825.7,134.1c241.2,72.7,449.7,163.2,617.2,235.9
		c52.4,22.8,100.8,43.8,145.6,62.3V1119c-43.3-18-89.6-38.1-138.8-59.4C2573.3,986.7,2364.3,895.9,2122.1,823z"/>
	
		<linearGradient id="SVGID_00000040575850117634404330000018363635401788222616_" gradientUnits="userSpaceOnUse" x1="1439.9899" y1="15.6661" x2="1439.9899" y2="1633.8701">
		<stop  offset="0" style="stop-color:#C31D6C"/>
		<stop  offset="1" style="stop-color:#EC1A75"/>
	</linearGradient>
	<path style="fill:url(#SVGID_00000040575850117634404330000018363635401788222616_);" d="M2122.1,899.4L2122.1,899.4
		c-284-85.6-555.6-129.7-830.3-134.9c-266.5-5-506.5,9.9-733.9,45.7c-194.6,30.6-347.7,71.7-470.6,104.8
		c-30.5,8.2-59.4,16-87.2,23.1v17.7c29.2-7.5,59.6-15.6,91.7-24.2c122.6-32.9,275.2-73.9,468.9-104.4
		c226.4-35.6,465.5-50.5,730.9-45.5c273.1,5.2,543.1,49,825.7,134.1c241.2,72.7,449.7,163.2,617.2,235.9
		c52.4,22.8,100.8,43.8,145.6,62.3v-18.6c-43.3-18-89.6-38.1-138.8-59.4C2573.3,1063,2364.3,972.3,2122.1,899.4z"/>
	
		<linearGradient id="SVGID_00000007418698670590530540000009948254498550038713_" gradientUnits="userSpaceOnUse" x1="1439.9899" y1="15.6661" x2="1439.9899" y2="1633.8701">
		<stop  offset="0" style="stop-color:#C31D6C"/>
		<stop  offset="1" style="stop-color:#EC1A75"/>
	</linearGradient>
	<path style="fill:url(#SVGID_00000007418698670590530540000009948254498550038713_);" d="M2122.1,975.7L2122.1,975.7
		c-284-85.6-555.6-129.7-830.3-134.9c-266.5-5-506.5,9.9-733.9,45.7c-194.6,30.6-347.7,71.7-470.6,104.8
		c-30.5,8.2-59.4,16-87.2,23.1v17.7c29.2-7.5,59.6-15.6,91.7-24.2c122.6-32.9,275.2-73.9,468.9-104.4
		C786.9,867.8,1026,853,1291.5,858c273.1,5.2,543.1,49,825.7,134.1c241.2,72.7,449.7,163.2,617.2,235.9
		c52.4,22.8,100.8,43.8,145.6,62.3v-18.6c-43.3-18-89.6-38.1-138.8-59.4C2573.3,1139.4,2364.3,1048.7,2122.1,975.7z"/>
	
		<linearGradient id="SVGID_00000113328884419290237540000001954712269681406906_" gradientUnits="userSpaceOnUse" x1="1439.9899" y1="15.456" x2="1439.9899" y2="1633.66">
		<stop  offset="0" style="stop-color:#C31D6C"/>
		<stop  offset="1" style="stop-color:#EC1A75"/>
	</linearGradient>
	<path style="fill:url(#SVGID_00000113328884419290237540000001954712269681406906_);" d="M2122.1,1052.1L2122.1,1052.1
		c-284-85.6-555.6-129.7-830.3-134.9c-266.5-5-506.5,9.9-733.9,45.7c-194.6,30.6-347.7,71.7-470.6,104.7
		c-30.5,8.2-59.4,15.9-87.2,23.1v17.7c29.2-7.5,59.6-15.6,91.7-24.2c122.6-32.9,275.2-73.9,468.9-104.4
		c226.4-35.6,465.5-50.5,730.9-45.5c273.1,5.2,543.1,49,825.7,134.1c241.2,72.7,449.7,163.2,617.2,235.9
		c52.4,22.8,100.8,43.8,145.6,62.3v-18.6c-43.3-18-89.6-38.1-138.8-59.4C2573.3,1215.7,2364.3,1125,2122.1,1052.1z"/>
	
		<linearGradient id="SVGID_00000052787887548902057860000000250721631374879417_" gradientUnits="userSpaceOnUse" x1="1439.9899" y1="15.6661" x2="1439.9899" y2="1633.8701">
		<stop  offset="0" style="stop-color:#C31D6C"/>
		<stop  offset="1" style="stop-color:#EC1A75"/>
	</linearGradient>
	<path style="fill:url(#SVGID_00000052787887548902057860000000250721631374879417_);" d="M2122.1,1128.4L2122.1,1128.4
		c-284-85.6-555.6-129.7-830.3-134.9c-266.5-5-506.5,9.9-733.9,45.7C363.3,1069.9,210.2,1111,87.2,1144
		c-30.5,8.2-59.4,15.9-87.2,23.1v17.7c29.2-7.5,59.6-15.6,91.7-24.2c122.6-32.9,275.2-73.9,468.9-104.4
		c226.4-35.6,465.5-50.5,730.9-45.5c273.1,5.2,543.1,49,825.7,134.1c241.2,72.7,449.7,163.2,617.2,235.9
		c52.4,22.8,100.8,43.8,145.6,62.3v-18.6c-43.3-18-89.6-38.1-138.8-59.4C2573.3,1292.1,2364.3,1201.4,2122.1,1128.4z"/>
	
		<linearGradient id="SVGID_00000155850396406694483730000004763076913596489363_" gradientUnits="userSpaceOnUse" x1="1439.9899" y1="15.6661" x2="1439.9899" y2="1633.8701">
		<stop  offset="0" style="stop-color:#C31D6C"/>
		<stop  offset="1" style="stop-color:#EC1A75"/>
	</linearGradient>
	<path style="fill:url(#SVGID_00000155850396406694483730000004763076913596489363_);" d="M2122.1,1204.8L2122.1,1204.8
		c-284-85.6-555.6-129.7-830.3-134.9c-266.5-5-506.5,9.9-733.9,45.7c-194.6,30.6-347.7,71.7-470.6,104.8
		c-30.5,8.2-59.4,15.9-87.2,23.1v17.7c29.2-7.5,59.6-15.6,91.7-24.2c122.6-32.9,275.2-73.9,468.9-104.4
		c226.4-35.6,465.5-50.5,730.9-45.5c273.1,5.2,543.1,49,825.7,134.1c241.2,72.7,449.7,163.2,617.2,235.9
		c52.4,22.8,100.8,43.8,145.6,62.3v-18.6c-43.3-18-89.6-38.1-138.8-59.4C2573.3,1368.5,2364.3,1277.7,2122.1,1204.8z"/>
	
		<linearGradient id="SVGID_00000117659175665624261090000012406637101289861007_" gradientUnits="userSpaceOnUse" x1="1439.9899" y1="15.6661" x2="1439.9899" y2="1633.8701">
		<stop  offset="0" style="stop-color:#C31D6C"/>
		<stop  offset="1" style="stop-color:#EC1A75"/>
	</linearGradient>
	<path style="fill:url(#SVGID_00000117659175665624261090000012406637101289861007_);" d="M2122.1,1281.1L2122.1,1281.1
		c-284-85.6-555.6-129.7-830.3-134.9c-266.5-5-506.5,9.9-733.9,45.7c-194.6,30.6-347.7,71.7-470.6,104.8
		c-30.5,8.2-59.4,15.9-87.2,23.1v17.7c29.2-7.5,59.6-15.6,91.7-24.2c122.6-32.9,275.2-73.9,468.9-104.4
		c226.4-35.6,465.5-50.5,730.9-45.5c273.1,5.2,543.1,49,825.7,134.1c241.2,72.7,449.7,163.2,617.2,235.9
		c52.4,22.8,100.8,43.8,145.6,62.3v-18.6c-43.3-18-89.6-38.1-138.8-59.4C2573.3,1444.8,2364.3,1354.1,2122.1,1281.1z"/>
	
		<linearGradient id="SVGID_00000009592162711414631030000003017113772119837371_" gradientUnits="userSpaceOnUse" x1="1400.5399" y1="15.6661" x2="1400.5399" y2="1633.8701">
		<stop  offset="0" style="stop-color:#C31D6C"/>
		<stop  offset="1" style="stop-color:#EC1A75"/>
	</linearGradient>
	<path style="fill:url(#SVGID_00000009592162711414631030000003017113772119837371_);" d="M2122.1,1357.5L2122.1,1357.5
		c-284.1-85.6-555.6-129.7-830.3-134.9c-266.5-5-506.5,9.9-733.9,45.7c-194.6,30.6-347.7,71.7-470.6,104.8
		c-30.5,8.2-59.4,15.9-87.2,23.1v17.7c29.2-7.5,59.6-15.6,91.7-24.2c122.6-32.9,275.2-73.9,468.9-104.4
		c226.4-35.6,465.5-50.5,730.9-45.5c273.1,5.2,543.1,49,825.7,134.1c241.2,72.7,449.7,163.2,617.2,235.9c7.9,3.4,15.8,6.8,23.5,10.2
		h43.2c-19.5-8.4-39.4-17.1-59.9-25.9C2573.3,1521.2,2364.3,1430.4,2122.1,1357.5z"/>
	
		<linearGradient id="SVGID_00000127728917768188174510000010037809865122214068_" gradientUnits="userSpaceOnUse" x1="1312.1399" y1="15.6661" x2="1312.1399" y2="1633.8701">
		<stop  offset="0" style="stop-color:#C31D6C"/>
		<stop  offset="1" style="stop-color:#EC1A75"/>
	</linearGradient>
	<path style="fill:url(#SVGID_00000127728917768188174510000010037809865122214068_);" d="M1291.8,1299L1291.8,1299
		c-266.4-5-506.5,9.9-733.9,45.7c-194.6,30.6-347.7,71.7-470.6,104.8c-30.5,8.2-59.4,15.9-87.2,23.1v17.7
		c29.2-7.5,59.6-15.6,91.7-24.2c122.6-32.9,275.2-73.9,468.9-104.4c226.4-35.6,465.5-50.5,730.9-45.5
		c273.1,5.2,543.1,49,825.7,134.1c172,51.8,327.4,112.7,463.1,169.7h44c-144.7-61.6-313.4-129.3-502.2-186.2
		C1838,1348.3,1566.4,1304.2,1291.8,1299z"/>
	
		<linearGradient id="SVGID_00000152965771516375268500000016121016026122484877_" gradientUnits="userSpaceOnUse" x1="1218.9249" y1="15.6661" x2="1218.9249" y2="1633.8701">
		<stop  offset="0" style="stop-color:#C31D6C"/>
		<stop  offset="1" style="stop-color:#EC1A75"/>
	</linearGradient>
	<path style="fill:url(#SVGID_00000152965771516375268500000016121016026122484877_);" d="M1291.8,1375.3L1291.8,1375.3
		c-266.4-5-506.5,9.9-733.9,45.7c-194.6,30.6-347.7,71.7-470.6,104.8c-30.5,8.2-59.4,15.9-87.2,23.1v17.7
		c29.2-7.5,59.6-15.6,91.7-24.2c122.6-32.9,275.2-73.9,468.9-104.4c226.4-35.6,465.5-50.5,730.9-45.5
		c273.1,5.2,543.1,49,825.7,134.1c96.4,29,187.6,60.9,273,93.4h47.7c-97.5-38.1-203.1-75.9-315.8-109.8
		C1838,1424.6,1566.4,1380.5,1291.8,1375.3z"/>
	
		<linearGradient id="SVGID_00000040537066785980047520000009395288459949657236_" gradientUnits="userSpaceOnUse" x1="1123.8049" y1="15.6661" x2="1123.8051" y2="1633.8701">
		<stop  offset="0" style="stop-color:#C31D6C"/>
		<stop  offset="1" style="stop-color:#EC1A75"/>
	</linearGradient>
	<path style="fill:url(#SVGID_00000040537066785980047520000009395288459949657236_);" d="M1291.8,1451.7L1291.8,1451.7
		c-266.4-5-506.5,9.9-733.9,45.7c-194.6,30.6-347.7,71.7-470.6,104.8c-23.2,6.2-45.5,12.2-67,17.9h66.6c1.6-0.4,3.2-0.9,4.9-1.3
		c122.6-32.9,275.2-73.9,468.9-104.4c226.4-35.6,465.5-50.5,730.9-45.5c273.1,5.2,543.1,49,825.7,134.1c18.5,5.6,36.8,11.3,55,17
		h55.3c-34.4-11.5-69.5-22.7-105.3-33.4C1838,1501,1566.4,1456.9,1291.8,1451.7z"/>
	
		<linearGradient id="SVGID_00000047042277493952941080000005231588395741961898_" gradientUnits="userSpaceOnUse" x1="1142.595" y1="15.6661" x2="1142.595" y2="1633.8701">
		<stop  offset="0" style="stop-color:#C31D6C"/>
		<stop  offset="1" style="stop-color:#EC1A75"/>
	</linearGradient>
	<path style="fill:url(#SVGID_00000047042277493952941080000005231588395741961898_);" d="M557.9,1573.7L557.9,1573.7
		c-88,13.8-167.5,29.8-239.6,46.3h80.9c50.4-10.4,104.1-20.3,161.4-29.3c226.4-35.6,465.5-50.5,731-45.5
		c200.2,3.8,398.9,28.4,602,74.8h73.4c-228.6-57.5-450.9-87.7-675.1-91.9C1025.3,1523,785.3,1538,557.9,1573.7z"/>
	
		<linearGradient id="SVGID_00000159450450422266256320000017765762967271120791_" gradientUnits="userSpaceOnUse" x1="1172.705" y1="15.6661" x2="1172.7051" y2="1633.8701">
		<stop  offset="0" style="stop-color:#C31D6C"/>
		<stop  offset="1" style="stop-color:#EC1A75"/>
	</linearGradient>
	<path style="fill:url(#SVGID_00000159450450422266256320000017765762967271120791_);" d="M803.7,1620h738.1
		c-83.3-8.8-166.5-14-249.9-15.6C1119.3,1601.2,957.8,1606.3,803.7,1620z"/>
</g>
</svg>
